<svg id="Layer_1" enable-background="new 0 0 512 512" height="512" viewBox="0 0 512 512" width="512" xmlns="http://www.w3.org/2000/svg"><g><g id="XMLID_332_"><g id="XMLID_333_"><g id="XMLID_334_"><g id="XMLID_336_"><g id="XMLID_337_"><g id="XMLID_338_"><g id="XMLID_346_"><g id="XMLID_365_"><g id="XMLID_366_"><g id="XMLID_367_"><g id="XMLID_368_"><g id="XMLID_369_"><g id="XMLID_370_"><g id="XMLID_371_"><circle id="XMLID_372_" cx="256" cy="256" fill="#08475e" r="256"/></g></g></g></g></g></g></g></g></g></g></g></g></g></g><path d="m511.024 278.284-164.28-164.28-228.868 291.232 104.572 104.575c10.981 1.437 22.178 2.189 33.552 2.189 133.875 0 243.729-102.768 255.024-233.716z" fill="#05303d"/><g><path d="m365.577 148.439-6.681-15.349c-10.499-24.119-33.193-40.697-59.362-43.366l-23.719-2.418c-16.333-1.665-32.428 4.879-42.964 17.469-12.822 15.322-36.38 15.322-49.202 0-10.536-12.59-26.632-19.135-42.964-17.469l-23.718 2.418c-26.169 2.668-48.863 19.247-59.362 43.366l-6.681 15.349c-10.737 24.665-6.996 53.241 9.728 74.311l33.489 42.193c10.984 13.838 16.208 31.379 14.587 48.971l-5.456 59.186c-.618 6.7 1.197 13.398 5.112 18.87l9.492 13.266c9.463 13.226 28.163 15.64 40.675 5.251l7.527-6.25c5.551-4.609 9.109-11.183 9.933-18.35l6.84-59.496c1.484-12.906 12.409-22.647 25.4-22.647 12.991 0 23.916 9.742 25.4 22.647l6.84 59.496c.824 7.168 4.382 13.741 9.933 18.35l7.527 6.25c12.512 10.389 31.212 7.975 40.675-5.251l9.492-13.266c3.915-5.472 5.73-12.17 5.112-18.87l-5.456-59.186c-1.622-17.593 3.603-35.133 14.587-48.971l33.489-42.193c16.722-21.07 20.463-49.645 9.727-74.311z" fill="#fff"/><path d="m355.85 222.75-33.49 42.19c-10.98 13.84-16.21 31.38-14.59 48.97l5.46 59.19c.62 6.7-1.2 13.4-5.11 18.87l-9.5 13.27c-9.46 13.22-28.16 15.64-40.67 5.25l-7.53-6.25c-5.55-4.61-9.11-11.19-9.93-18.35l-6.84-59.5c-.74-6.45-3.84-12.12-8.38-16.17-4.55-4.04-10.53-6.48-17.02-6.48v-187.47c9.09 0 18.19-3.83 24.6-11.49 10.54-12.59 26.63-19.14 42.97-17.47l23.71 2.41c26.17 2.67 48.87 19.25 59.37 43.37l6.68 15.35c10.73 24.66 6.99 53.24-9.73 74.31z" fill="#d1fefb"/><circle cx="375.127" cy="328.483" fill="#8ee26b" r="92"/><path d="m467.13 328.48c0 50.81-41.19 92-92 92v-184c50.81 0 92 41.19 92 92z" fill="#00da80"/><path d="m420.929 307.149h-25.802v-25.802h-40v25.802h-25.802v40h25.802v25.802h40v-25.802h25.802z" fill="#fff"/><path d="m420.93 307.15v40h-25.8v25.8h-20v-91.6h20v25.8z" fill="#d1fefb"/></g></g></svg>