<svg id="_x33_0" enable-background="new 0 0 64 64" height="512" viewBox="0 0 64 64" width="512" xmlns="http://www.w3.org/2000/svg" xmlns:xlink="http://www.w3.org/1999/xlink"><linearGradient id="SVGID_1_" gradientUnits="userSpaceOnUse" x1="32" x2="32" y1="63" y2="1"><stop offset="0" stop-color="#9f2fff"/><stop offset="1" stop-color="#0bb1d3"/></linearGradient><path d="m55 7h-3.91c-2.255 0-4.09 1.835-4.09 4.09 0 1.469.775 2.791 2.031 3.524.152 1.332 1.106 2.452 2.492 2.797.87.218 1.477.996 1.477 1.893 0 .301-.071.603-.206.872l-2.558 5.116c-1.172 2.345-2.026 4.847-2.566 7.415-1.452-1.003-3.023-1.813-4.67-2.418v-23.289c0-1.103-.897-2-2-2h-8v-2c0-1.103-.897-2-2-2h-18c-1.103 0-2 .897-2 2v2h-8c-1.103 0-2 .897-2 2v54c0 1.103.897 2 2 2h38c1.103 0 2-.897 2-2v-10h5.401c5.481 0 10.055-3.934 10.875-9.353l3.412-22.521c.208-1.362.312-2.751.312-4.126 0-4.411-3.589-8-8-8zm-14 0v22.662c-.658-.169-1.327-.299-2-.403v-20.259h-8c1.103 0 2-.897 2-2zm-9.38 22.437c-3.803-2.856-8.482-4.437-13.244-4.437-4.033 0-7.94 1.104-11.376 3.177v-17.177h6v4c0 1.103.897 2 2 2h14c1.103 0 2-.897 2-2v-4h6v18.051c-.393-.022-.786-.051-1.181-.051-1.421 0-2.823.154-4.199.437zm-24.62 17.659c3.252 2.513 7.26 3.904 11.382 3.904 2.536 0 5.005-.507 7.337-1.506l3.155-1.353c2.39 1.657 5.226 2.635 8.126 2.82v6.039h-30zm12-38.096h6v2h-6zm8 4v-4h2v6h-14v-6h2v4zm-14-10h18l.002 4h-18.002zm28 58h-38v-54h8c0 1.103.897 2 2 2h-8v50h34v-8h2zm19.712-42.172-3.412 22.521c-.672 4.433-4.414 7.651-8.899 7.651h-10.401c-3.009 0-5.992-.994-8.4-2.8l-.462-.347-4.206 1.803c-2.082.892-4.286 1.344-6.55 1.344-3.882 0-7.662-1.369-10.645-3.854l-.737-.615v-13.996l.25-.166c3.306-2.204 7.152-3.369 11.126-3.369 3.8 0 7.542 1.108 10.74 3.133-.345.118-.693.222-1.033.358l-1.454.581.742 1.857 1.455-.581c2.233-.895 4.586-1.348 6.993-1.348 4.144 0 8.189 1.395 11.468 3.914-.183 1.355-.287 2.72-.287 4.086h2c0-4.425 1.046-8.855 3.025-12.813l2.558-5.116c.272-.547.417-1.157.417-1.767 0-1.816-1.23-3.393-3.057-3.848-.555-.14-.943-.637-.943-1.21 0-.687.559-1.246 1.246-1.246h2.754v-2h-2.754c-1.132 0-2.127.584-2.708 1.465-.333-.375-.538-.852-.538-1.375 0-1.152.937-2.09 2.09-2.09h3.91c3.309 0 6 2.691 6 6 0 1.274-.097 2.563-.288 3.828zm-27.712 34.172h2v2h-2zm-4 0h2v2h-2zm-4 0h2v2h-2zm-4 0h2v2h-2zm-4 0h2v2h-2zm-4 0h2v2h-2zm-4-34h10v2h-10zm12 0h14v2h-14zm12 4h2v2h-2zm-4 0h2v2h-2zm-4 0h2v2h-2z" fill="url(#SVGID_1_)"/></svg>