<?xml version="1.0" encoding="iso-8859-1"?>
<!-- Generator: Adobe Illustrator 19.0.0, SVG Export Plug-In . SVG Version: 6.00 Build 0)  -->
<svg version="1.1" id="Capa_1" xmlns="http://www.w3.org/2000/svg" xmlns:xlink="http://www.w3.org/1999/xlink" x="0px" y="0px"
	 viewBox="0 0 480 480" style="enable-background:new 0 0 480 480;" xml:space="preserve">
<g>
	
		<linearGradient id="SVGID_1_" gradientUnits="userSpaceOnUse" x1="-26.8709" y1="612.958" x2="-26.8709" y2="556.505" gradientTransform="matrix(8 0 0 -8 454.9999 4941)">
		<stop  offset="0" style="stop-color:#00E7F0"/>
		<stop  offset="1" style="stop-color:#006DF0"/>
	</linearGradient>
	<path style="fill:url(#SVGID_1_);" d="M240,72c13.255,0.018,24.015-10.713,24.033-23.967C264.051,34.778,253.32,24.018,240.065,24
		c-13.255-0.018-24.015,10.713-24.033,23.967c-0.006,4.224,1.103,8.375,3.215,12.033C223.506,67.439,231.429,72.02,240,72z
		 M233.072,44c2.206-3.828,7.097-5.144,10.925-2.939c1.221,0.704,2.235,1.717,2.939,2.939c1.419,2.444,1.419,5.46,0,7.904
		c-2.444,3.828-7.529,4.951-11.357,2.507c-1.008-0.643-1.863-1.499-2.507-2.507c-1.425-2.448-1.425-5.472,0-7.92V44z"/>
	
		<linearGradient id="SVGID_2_" gradientUnits="userSpaceOnUse" x1="-26.875" y1="612.958" x2="-26.875" y2="556.505" gradientTransform="matrix(8 0 0 -8 454.9999 4941)">
		<stop  offset="0" style="stop-color:#00E7F0"/>
		<stop  offset="1" style="stop-color:#006DF0"/>
	</linearGradient>
	<path style="fill:url(#SVGID_2_);" d="M408,48h-65.472C339.15,38.445,330.134,32.042,320,32h-21.432
		C289.324,12.447,269.628-0.016,248,0h-16c-21.628-0.016-41.324,12.447-50.568,32H160c-10.134,0.042-19.15,6.445-22.528,16H72
		c-4.418,0-8,3.582-8,8v416c0,4.418,3.582,8,8,8h336c4.418,0,8-3.582,8-8V56C416,51.582,412.418,48,408,48z M144,112h192
		c4.418,0,8-3.582,8-8v-8h24v336H112V96h24v8C136,108.418,139.582,112,144,112z M160,48h26.8c3.405-0.002,6.435-2.159,7.552-5.376
		C199.969,26.651,215.068,15.973,232,16h16c16.932-0.027,32.031,10.651,37.648,26.624c1.117,3.217,4.147,5.374,7.552,5.376H320
		c4.418,0,8,3.582,8,8v40H152V56C152,51.582,155.582,48,160,48z M400,464H80V64h56v16h-32c-4.418,0-8,3.582-8,8v352
		c0,4.418,3.582,8,8,8h272c4.418,0,8-3.582,8-8V88c0-4.418-3.582-8-8-8h-32V64h56V464z"/>
	
		<linearGradient id="SVGID_3_" gradientUnits="userSpaceOnUse" x1="-26.875" y1="612.958" x2="-26.875" y2="556.505" gradientTransform="matrix(8 0 0 -8 454.9999 4941)">
		<stop  offset="0" style="stop-color:#00E7F0"/>
		<stop  offset="1" style="stop-color:#006DF0"/>
	</linearGradient>
	<path style="fill:url(#SVGID_3_);" d="M216,240h48v-32h32v-48h-32v-32h-48v32h-32v48h32V240z M200,192v-16h32v-32h16v32h32v16h-32
		v32h-16v-32H200z"/>
</g>
<g>
	
		<linearGradient id="SVGID_4_" gradientUnits="userSpaceOnUse" x1="-24.375" y1="612.958" x2="-24.375" y2="556.505" gradientTransform="matrix(8 0 0 -8 454.9999 4941)">
		<stop  offset="0" style="stop-color:#00E7F0"/>
		<stop  offset="1" style="stop-color:#006DF0"/>
	</linearGradient>
	<path style="fill:url(#SVGID_4_);" d="M184,360h152v16H184V360z"/>
	
		<linearGradient id="SVGID_5_" gradientUnits="userSpaceOnUse" x1="-24.375" y1="612.958" x2="-24.375" y2="556.505" gradientTransform="matrix(8 0 0 -8 454.9999 4941)">
		<stop  offset="0" style="stop-color:#00E7F0"/>
		<stop  offset="1" style="stop-color:#006DF0"/>
	</linearGradient>
	<path style="fill:url(#SVGID_5_);" d="M184,328h152v16H184V328z"/>
	
		<linearGradient id="SVGID_6_" gradientUnits="userSpaceOnUse" x1="-24.375" y1="612.958" x2="-24.375" y2="556.505" gradientTransform="matrix(8 0 0 -8 454.9999 4941)">
		<stop  offset="0" style="stop-color:#00E7F0"/>
		<stop  offset="1" style="stop-color:#006DF0"/>
	</linearGradient>
	<path style="fill:url(#SVGID_6_);" d="M184,296h152v16H184V296z"/>
	
		<linearGradient id="SVGID_7_" gradientUnits="userSpaceOnUse" x1="-37.375" y1="612.958" x2="-37.375" y2="556.505" gradientTransform="matrix(8 0 0 -8 454.9999 4941)">
		<stop  offset="0" style="stop-color:#00E7F0"/>
		<stop  offset="1" style="stop-color:#006DF0"/>
	</linearGradient>
	<path style="fill:url(#SVGID_7_);" d="M144,296h24v16h-24V296z"/>
	
		<linearGradient id="SVGID_8_" gradientUnits="userSpaceOnUse" x1="-37.375" y1="612.958" x2="-37.375" y2="556.505" gradientTransform="matrix(8 0 0 -8 454.9999 4941)">
		<stop  offset="0" style="stop-color:#00E7F0"/>
		<stop  offset="1" style="stop-color:#006DF0"/>
	</linearGradient>
	<path style="fill:url(#SVGID_8_);" d="M144,360h24v16h-24V360z"/>
	
		<linearGradient id="SVGID_9_" gradientUnits="userSpaceOnUse" x1="-37.375" y1="612.958" x2="-37.375" y2="556.505" gradientTransform="matrix(8 0 0 -8 454.9999 4941)">
		<stop  offset="0" style="stop-color:#00E7F0"/>
		<stop  offset="1" style="stop-color:#006DF0"/>
	</linearGradient>
	<path style="fill:url(#SVGID_9_);" d="M144,328h24v16h-24V328z"/>
</g>
<g>
</g>
<g>
</g>
<g>
</g>
<g>
</g>
<g>
</g>
<g>
</g>
<g>
</g>
<g>
</g>
<g>
</g>
<g>
</g>
<g>
</g>
<g>
</g>
<g>
</g>
<g>
</g>
<g>
</g>
</svg>
